<svg width="147" height="70" viewBox="0 0 147 70" fill="none" xmlns="http://www.w3.org/2000/svg">
<rect width="132" height="47" rx="5" fill="lightgray"/>
<path d="M121.5 15L127.225 34.002H145.752L130.763 45.7459L136.489 64.748L121.5 53.0041L106.511 64.748L112.237 45.7459L97.2481 34.002H115.775L121.5 15Z" fill="#CA1818"/>
<path d="M24.1562 27.4844H17.9922L16.8203 31H13.082L19.4336 13.9375H22.6914L29.0781 31H25.3398L24.1562 27.4844ZM18.9414 24.6367H23.207L21.0625 18.25L18.9414 24.6367ZM36.9883 24.7539H34.1875V31H30.6719V13.9375H37.0117C39.0273 13.9375 40.582 14.3867 41.6758 15.2852C42.7695 16.1836 43.3164 17.4531 43.3164 19.0938C43.3164 20.2578 43.0625 21.2305 42.5547 22.0117C42.0547 22.7852 41.293 23.4023 40.2695 23.8633L43.9609 30.8359V31H40.1875L36.9883 24.7539ZM34.1875 21.9062H37.0234C37.9062 21.9062 38.5898 21.6836 39.0742 21.2383C39.5586 20.7852 39.8008 20.1641 39.8008 19.375C39.8008 18.5703 39.5703 17.9375 39.1094 17.4766C38.6562 17.0156 37.957 16.7852 37.0117 16.7852H34.1875V21.9062ZM51.3438 24.1562L49.5156 26.125V31H46V13.9375H49.5156V21.6719L51.0625 19.5508L55.4102 13.9375H59.7344L53.6758 21.5195L59.9102 31H55.7266L51.3438 24.1562ZM64.3164 19.7031C65.2148 18.625 66.3438 18.0859 67.7031 18.0859C70.4531 18.0859 71.8477 19.6836 71.8867 22.8789V31H68.5V22.9727C68.5 22.2461 68.3438 21.7109 68.0312 21.3672C67.7188 21.0156 67.1992 20.8398 66.4727 20.8398C65.4805 20.8398 64.7617 21.2227 64.3164 21.9883V31H60.9297V13H64.3164V19.7031ZM78.0156 31H74.6172V18.3203H78.0156V31ZM74.418 15.0391C74.418 14.5312 74.5859 14.1133 74.9219 13.7852C75.2656 13.457 75.7305 13.293 76.3164 13.293C76.8945 13.293 77.3555 13.457 77.6992 13.7852C78.043 14.1133 78.2148 14.5312 78.2148 15.0391C78.2148 15.5547 78.0391 15.9766 77.6875 16.3047C77.3438 16.6328 76.8867 16.7969 76.3164 16.7969C75.7461 16.7969 75.2852 16.6328 74.9336 16.3047C74.5898 15.9766 74.418 15.5547 74.418 15.0391ZM85.5625 26.8633L87.918 18.3203H91.457L87.1797 31H83.9453L79.668 18.3203H83.207L85.5625 26.8633ZM98.6289 31.2344C96.7695 31.2344 95.2539 30.6641 94.082 29.5234C92.918 28.3828 92.3359 26.8633 92.3359 24.9648V24.6367C92.3359 23.3633 92.582 22.2266 93.0742 21.2266C93.5664 20.2188 94.2617 19.4453 95.1602 18.9062C96.0664 18.3594 97.0977 18.0859 98.2539 18.0859C99.9883 18.0859 101.352 18.6328 102.344 19.7266C103.344 20.8203 103.844 22.3711 103.844 24.3789V25.7617H95.7695C95.8789 26.5898 96.207 27.2539 96.7539 27.7539C97.3086 28.2539 98.0078 28.5039 98.8516 28.5039C100.156 28.5039 101.176 28.0312 101.91 27.0859L103.574 28.9492C103.066 29.668 102.379 30.2305 101.512 30.6367C100.645 31.0352 99.6836 31.2344 98.6289 31.2344ZM98.2422 20.8281C97.5703 20.8281 97.0234 21.0547 96.6016 21.5078C96.1875 21.9609 95.9219 22.6094 95.8047 23.4531H100.516V23.1836C100.5 22.4336 100.297 21.8555 99.9062 21.4492C99.5156 21.0352 98.9609 20.8281 98.2422 20.8281ZM112.645 27.4961C112.645 27.082 112.438 26.7578 112.023 26.5234C111.617 26.2812 110.961 26.0664 110.055 25.8789C107.039 25.2461 105.531 23.9648 105.531 22.0352C105.531 20.9102 105.996 19.9727 106.926 19.2227C107.863 18.4648 109.086 18.0859 110.594 18.0859C112.203 18.0859 113.488 18.4648 114.449 19.2227C115.418 19.9805 115.902 20.9648 115.902 22.1758H112.516C112.516 21.6914 112.359 21.293 112.047 20.9805C111.734 20.6602 111.246 20.5 110.582 20.5C110.012 20.5 109.57 20.6289 109.258 20.8867C108.945 21.1445 108.789 21.4727 108.789 21.8711C108.789 22.2461 108.965 22.5508 109.316 22.7852C109.676 23.0117 110.277 23.2109 111.121 23.3828C111.965 23.5469 112.676 23.7344 113.254 23.9453C115.043 24.6016 115.938 25.7383 115.938 27.3555C115.938 28.5117 115.441 29.4492 114.449 30.168C113.457 30.8789 112.176 31.2344 110.605 31.2344C109.543 31.2344 108.598 31.0469 107.77 30.6719C106.949 30.2891 106.305 29.7695 105.836 29.1133C105.367 28.4492 105.133 27.7344 105.133 26.9688H108.344C108.375 27.5703 108.598 28.0312 109.012 28.3516C109.426 28.6719 109.98 28.832 110.676 28.832C111.324 28.832 111.812 28.7109 112.141 28.4688C112.477 28.2188 112.645 27.8945 112.645 27.4961Z" fill="#CA1818"/>
</svg>
