<svg width="92" height="27" viewBox="0 0 92 27" fill="none" xmlns="http://www.w3.org/2000/svg">
<path d="M24.375 14.73C24.6317 15.36 24.8067 16.0483 24.9 16.795C24.3633 17.1217 23.5467 17.46 22.45 17.81C21.3533 18.16 20.3267 18.37 19.37 18.44C18.3433 20.8433 16.92 22.78 15.1 24.25C13.3033 25.6967 11.0633 26.42 8.38 26.42C5.69667 26.42 3.64333 25.5217 2.22 23.725C0.82 21.905 0.12 19.3967 0.12 16.2C0.12 12.98 0.866667 10.0517 2.36 7.415C3.85333 4.755 5.98833 2.67833 8.765 1.185L9.5 2.41C6.98 5.56 5.72 10.075 5.72 15.955C5.72 19.7817 6.30333 22.22 7.47 23.27C8.00667 23.7833 8.68333 24.04 9.5 24.04C11.81 24.04 13.49 22.0567 14.54 18.09C12.72 17.7633 11.32 16.9933 10.34 15.78C9.36 14.5433 8.87 12.8283 8.87 10.635C8.87 8.41833 9.5 6.435 10.76 4.685C12.02 2.91166 13.5367 2.025 15.31 2.025C17.1067 2.025 18.5067 2.81833 19.51 4.405C20.5133 5.96833 21.015 7.98667 21.015 10.46C21.015 12.0233 20.7 13.925 20.07 16.165C21.12 16.1183 22.3333 15.7567 23.71 15.08L24.375 14.73ZM15.485 10.39C15.485 8.71 15.3917 7.47333 15.205 6.68C15.0183 5.86333 14.575 5.455 13.875 5.455C13.175 5.455 12.5217 5.98 11.915 7.03C11.3317 8.05667 11.04 9.32833 11.04 10.845C11.04 12.3617 11.3783 13.5517 12.055 14.415C12.7317 15.255 13.6883 15.7333 14.925 15.85C15.2983 13.8667 15.485 12.0467 15.485 10.39ZM38.7543 23.865C36.7709 25.5683 35.0209 26.42 33.5043 26.42C32.0109 26.42 31.1476 25.6733 30.9143 24.18C30.2143 24.88 29.4326 25.4283 28.5693 25.825C27.7059 26.2217 26.9476 26.42 26.2943 26.42C25.1743 26.42 24.2176 25.93 23.4243 24.95C22.6309 23.97 22.2343 22.4533 22.2343 20.4C22.2343 17.32 22.8876 14.905 24.1943 13.155C25.5009 11.3817 26.9709 10.495 28.6043 10.495C30.2609 10.495 31.6493 10.8683 32.7693 11.615C33.4926 7.835 33.8543 4.86 33.8543 2.69L33.6793 1.22C35.4293 0.613333 37.1443 0.309999 38.8243 0.309999C39.0109 0.706666 39.1043 1.16167 39.1043 1.675C39.1043 3.37833 38.5909 6.84333 37.5643 12.07C36.5376 17.2733 36.0243 20.8083 36.0243 22.675C36.0243 23.235 36.1526 23.515 36.4093 23.515C36.5493 23.515 36.9926 23.2933 37.7393 22.85L38.0893 22.64L38.7543 23.865ZM30.3193 12.56C29.5026 12.56 28.7909 13.365 28.1843 14.975C27.6009 16.585 27.3093 18.1833 27.3093 19.77C27.3093 21.3333 27.4143 22.3367 27.6243 22.78C27.8576 23.2233 28.1959 23.445 28.6393 23.445C29.4093 23.445 30.1676 23.13 30.9143 22.5C30.9843 21.5667 31.5093 18.4633 32.4893 13.19C31.6959 12.77 30.9726 12.56 30.3193 12.56ZM56.3226 23.865C54.3393 25.5683 52.5893 26.42 51.0726 26.42C49.5793 26.42 48.716 25.6733 48.4826 24.18C47.7826 24.88 47.001 25.4283 46.1376 25.825C45.2743 26.2217 44.516 26.42 43.8626 26.42C42.7426 26.42 41.786 25.93 40.9926 24.95C40.1993 23.97 39.8026 22.4533 39.8026 20.4C39.8026 17.32 40.456 14.905 41.7626 13.155C43.0693 11.3817 44.5393 10.495 46.1726 10.495C47.8293 10.495 49.2176 10.8683 50.3376 11.615C51.061 7.835 51.4226 4.86 51.4226 2.69L51.2476 1.22C52.9976 0.613333 54.7126 0.309999 56.3926 0.309999C56.5793 0.706666 56.6726 1.16167 56.6726 1.675C56.6726 3.37833 56.1593 6.84333 55.1326 12.07C54.106 17.2733 53.5926 20.8083 53.5926 22.675C53.5926 23.235 53.721 23.515 53.9776 23.515C54.1176 23.515 54.561 23.2933 55.3076 22.85L55.6576 22.64L56.3226 23.865ZM47.8876 12.56C47.071 12.56 46.3593 13.365 45.7526 14.975C45.1693 16.585 44.8776 18.1833 44.8776 19.77C44.8776 21.3333 44.9826 22.3367 45.1926 22.78C45.426 23.2233 45.7643 23.445 46.2076 23.445C46.9776 23.445 47.736 23.13 48.4826 22.5C48.5526 21.5667 49.0776 18.4633 50.0576 13.19C49.2643 12.77 48.541 12.56 47.8876 12.56ZM64.546 12.665C64.546 13.645 64.231 15.3367 63.601 17.74C62.971 20.12 62.656 21.6833 62.656 22.43C62.656 23.1533 62.761 23.515 62.971 23.515C63.111 23.515 63.6476 23.2933 64.581 22.85L65.001 22.64L65.596 23.865C65.386 24.0517 65.106 24.285 64.756 24.565C64.406 24.845 63.7526 25.23 62.796 25.72C61.8393 26.1867 60.9526 26.42 60.136 26.42C59.3193 26.42 58.6776 26.175 58.211 25.685C57.7443 25.1717 57.511 24.495 57.511 23.655C57.511 22.7917 57.8026 21.275 58.386 19.105C58.9693 16.9117 59.261 15.4883 59.261 14.835C59.261 13.855 58.9576 12.9333 58.351 12.07L58.036 11.65L58.071 11.195C59.3076 10.845 61.3143 10.67 64.091 10.67C64.3943 11.02 64.546 11.685 64.546 12.665ZM60.556 6.855C60.0893 6.38833 59.856 5.77 59.856 5C59.856 4.23 60.171 3.55333 60.801 2.97C61.4543 2.38667 62.201 2.095 63.041 2.095C63.881 2.095 64.5343 2.32833 65.001 2.795C65.4676 3.26167 65.701 3.88 65.701 4.65C65.701 5.39667 65.3626 6.06167 64.686 6.645C64.0326 7.22833 63.2976 7.52 62.481 7.52C61.6643 7.52 61.0226 7.29833 60.556 6.855ZM66.6971 19.945C66.6971 17.0283 67.5721 14.73 69.3221 13.05C71.0954 11.3467 73.1021 10.495 75.3421 10.495C76.7188 10.495 77.8504 10.8333 78.7371 11.51C79.6238 12.1867 80.0671 13.0967 80.0671 14.24C80.0671 15.36 79.7754 16.305 79.1921 17.075C78.6321 17.845 77.9438 18.44 77.1271 18.86C75.4704 19.6767 73.9538 20.19 72.5771 20.4L71.7371 20.505C71.9004 22.6983 72.7988 23.795 74.4321 23.795C74.9921 23.795 75.5871 23.655 76.2171 23.375C76.8471 23.095 77.3371 22.815 77.6871 22.535L78.2121 22.115L79.0521 23.235C78.8654 23.4917 78.4921 23.83 77.9321 24.25C77.3721 24.67 76.8471 25.02 76.3571 25.3C75.0038 26.0467 73.5221 26.42 71.9121 26.42C70.3021 26.42 69.0304 25.8483 68.0971 24.705C67.1638 23.5617 66.6971 21.975 66.6971 19.945ZM71.7021 18.79C72.8921 18.58 73.8371 18.0783 74.5371 17.285C75.2371 16.4917 75.5871 15.465 75.5871 14.205C75.5871 12.945 75.2138 12.315 74.4671 12.315C73.5804 12.315 72.8921 13.0733 72.4021 14.59C71.9354 16.0833 71.7021 17.4833 71.7021 18.79ZM91.9734 21.415C91.9734 22.885 91.3201 24.0867 90.0134 25.02C88.7301 25.9533 87.2601 26.42 85.6034 26.42C83.9467 26.42 82.6284 26.07 81.6484 25.37C80.6917 24.67 80.2134 24.0517 80.2134 23.515C80.2134 23.1883 80.6217 22.6633 81.4384 21.94C82.2551 21.1933 82.9434 20.7383 83.5034 20.575C84.6701 21.4383 85.6267 22.8033 86.3734 24.67C87.2367 24.6 87.6684 24.1917 87.6684 23.445C87.6684 22.3717 86.7234 20.855 84.8334 18.895C82.9434 16.9117 81.9984 15.3367 81.9984 14.17C81.9984 13.0033 82.5234 12.105 83.5734 11.475C84.6234 10.8217 85.8834 10.495 87.3534 10.495C88.8467 10.495 89.9667 10.7633 90.7134 11.3C91.4601 11.8133 91.8334 12.525 91.8334 13.435C91.8334 14.3217 91.1217 15.5583 89.6984 17.145C89.8617 17.3083 90.0717 17.53 90.3284 17.81C90.5851 18.0667 90.9234 18.5683 91.3434 19.315C91.7634 20.0617 91.9734 20.7617 91.9734 21.415ZM88.6134 15.92C89.5934 15.08 90.0834 14.2517 90.0834 13.435C90.0834 12.6183 89.5234 12.21 88.4034 12.21C87.8667 12.21 87.4234 12.3267 87.0734 12.56C86.7234 12.77 86.5484 13.015 86.5484 13.295C86.5484 13.8083 87.0617 14.5317 88.0884 15.465L88.6134 15.92Z" fill="#93109E"/>
</svg>
