<svg width="128" height="22" viewBox="0 0 128 22" fill="none" xmlns="http://www.w3.org/2000/svg">
<path d="M8.14648 13.7129H4.87891V21H0.777344V1.09375H8.17383C10.5254 1.09375 12.3392 1.61784 13.6152 2.66602C14.8913 3.71419 15.5293 5.19531 15.5293 7.10938C15.5293 8.46745 15.2331 9.60221 14.6406 10.5137C14.0573 11.416 13.1686 12.1361 11.9746 12.6738L16.2812 20.8086V21H11.8789L8.14648 13.7129ZM4.87891 10.3906H8.1875C9.21745 10.3906 10.015 10.1309 10.5801 9.61133C11.1452 9.08268 11.4277 8.35807 11.4277 7.4375C11.4277 6.4987 11.1589 5.76042 10.6211 5.22266C10.0924 4.6849 9.27669 4.41602 8.17383 4.41602H4.87891V10.3906ZM26.9727 21C26.7904 20.6445 26.6582 20.2025 26.5762 19.6738C25.6191 20.7402 24.375 21.2734 22.8438 21.2734C21.3945 21.2734 20.1914 20.8542 19.2344 20.0156C18.2865 19.1771 17.8125 18.1198 17.8125 16.8438C17.8125 15.276 18.3913 14.0729 19.5488 13.2344C20.7155 12.3958 22.3971 11.972 24.5938 11.9629H26.4121V11.1152C26.4121 10.4316 26.2344 9.88477 25.8789 9.47461C25.5326 9.06445 24.9811 8.85938 24.2246 8.85938C23.5592 8.85938 23.0352 9.01888 22.6523 9.33789C22.2786 9.6569 22.0918 10.0944 22.0918 10.6504H18.1406C18.1406 9.79362 18.4049 9.00065 18.9336 8.27148C19.4622 7.54232 20.2096 6.97266 21.1758 6.5625C22.1419 6.14323 23.2266 5.93359 24.4297 5.93359C26.2526 5.93359 27.6973 6.39388 28.7637 7.31445C29.8392 8.22591 30.377 9.51107 30.377 11.1699V17.582C30.3861 18.9857 30.582 20.0475 30.9648 20.7676V21H26.9727ZM23.7051 18.252C24.2884 18.252 24.8262 18.1243 25.3184 17.8691C25.8105 17.6048 26.1751 17.2539 26.4121 16.8164V14.2734H24.9355C22.9577 14.2734 21.9049 14.957 21.7773 16.3242L21.7637 16.5566C21.7637 17.0488 21.9368 17.4544 22.2832 17.7734C22.6296 18.0924 23.1035 18.252 23.7051 18.252ZM37.2676 7.82031C38.3158 6.5625 39.6328 5.93359 41.2188 5.93359C44.4271 5.93359 46.054 7.79753 46.0996 11.5254V21H42.1484V11.6348C42.1484 10.7871 41.9661 10.1628 41.6016 9.76172C41.237 9.35156 40.6309 9.14648 39.7832 9.14648C38.6257 9.14648 37.7871 9.5931 37.2676 10.4863V21H33.3164V0H37.2676V7.82031ZM57.6523 21C57.4701 20.6445 57.3379 20.2025 57.2559 19.6738C56.2988 20.7402 55.0547 21.2734 53.5234 21.2734C52.0742 21.2734 50.8711 20.8542 49.9141 20.0156C48.9661 19.1771 48.4922 18.1198 48.4922 16.8438C48.4922 15.276 49.071 14.0729 50.2285 13.2344C51.3952 12.3958 53.0768 11.972 55.2734 11.9629H57.0918V11.1152C57.0918 10.4316 56.9141 9.88477 56.5586 9.47461C56.2122 9.06445 55.6608 8.85938 54.9043 8.85938C54.2389 8.85938 53.7148 9.01888 53.332 9.33789C52.9583 9.6569 52.7715 10.0944 52.7715 10.6504H48.8203C48.8203 9.79362 49.0846 9.00065 49.6133 8.27148C50.1419 7.54232 50.8893 6.97266 51.8555 6.5625C52.8216 6.14323 53.9062 5.93359 55.1094 5.93359C56.9323 5.93359 58.377 6.39388 59.4434 7.31445C60.5189 8.22591 61.0566 9.51107 61.0566 11.1699V17.582C61.0658 18.9857 61.2617 20.0475 61.6445 20.7676V21H57.6523ZM54.3848 18.252C54.9681 18.252 55.5059 18.1243 55.998 17.8691C56.4902 17.6048 56.8548 17.2539 57.0918 16.8164V14.2734H55.6152C53.6374 14.2734 52.5846 14.957 52.457 16.3242L52.4434 16.5566C52.4434 17.0488 52.6165 17.4544 52.9629 17.7734C53.3092 18.0924 53.7832 18.252 54.3848 18.252Z" fill="#A34242"/>
<path d="M82.5625 16.8984H75.3711L74.0039 21H69.6426L77.0527 1.09375H80.8535L88.3047 21H83.9434L82.5625 16.8984ZM76.4785 13.5762H81.4551L78.9531 6.125L76.4785 13.5762ZM98.5996 19.4961C97.6243 20.681 96.2754 21.2734 94.5527 21.2734C92.9668 21.2734 91.7546 20.8177 90.916 19.9062C90.0866 18.9948 89.6628 17.6595 89.6445 15.9004V6.20703H93.5957V15.7637C93.5957 17.304 94.2975 18.0742 95.7012 18.0742C97.041 18.0742 97.9616 17.6094 98.4629 16.6797V6.20703H102.428V21H98.709L98.5996 19.4961ZM110.139 2.57031V6.20703H112.668V9.10547H110.139V16.4883C110.139 17.0352 110.243 17.4271 110.453 17.6641C110.663 17.901 111.064 18.0195 111.656 18.0195C112.094 18.0195 112.481 17.9876 112.818 17.9238V20.918C112.044 21.1549 111.246 21.2734 110.426 21.2734C107.655 21.2734 106.242 19.8743 106.188 17.0762V9.10547H104.027V6.20703H106.188V2.57031H110.139ZM113.844 13.4668C113.844 11.9993 114.126 10.6914 114.691 9.54297C115.257 8.39453 116.068 7.50586 117.125 6.87695C118.191 6.24805 119.426 5.93359 120.83 5.93359C122.826 5.93359 124.453 6.54427 125.711 7.76562C126.978 8.98698 127.684 10.6458 127.83 12.7422L127.857 13.7539C127.857 16.0234 127.224 17.8464 125.957 19.2227C124.69 20.5898 122.99 21.2734 120.857 21.2734C118.725 21.2734 117.02 20.5898 115.744 19.2227C114.477 17.8555 113.844 15.9961 113.844 13.6445V13.4668ZM117.795 13.7539C117.795 15.1576 118.059 16.2331 118.588 16.9805C119.117 17.7188 119.873 18.0879 120.857 18.0879C121.814 18.0879 122.562 17.7233 123.1 16.9941C123.637 16.2559 123.906 15.0801 123.906 13.4668C123.906 12.0905 123.637 11.0241 123.1 10.2676C122.562 9.51107 121.805 9.13281 120.83 9.13281C119.864 9.13281 119.117 9.51107 118.588 10.2676C118.059 11.015 117.795 12.1771 117.795 13.7539Z" fill="#0E0E0E" fill-opacity="0.91"/>
</svg>
